# Blender 4.5.1 LTS
# www.blender.org
mtllib Doorway.mtl
o Cube
v 0.250000 1.750000 -1.250000
v 0.250000 -0.750000 -1.250000
v 0.250000 1.750000 1.250000
v 0.250000 -0.750000 1.250000
v -0.250000 1.750000 -1.250000
v -0.250000 -0.750000 -1.250000
v -0.250000 1.750000 1.250000
v -0.250000 -0.750000 1.250000
v -0.250000 -0.750000 0.625000
v 0.250000 1.750000 0.625000
v -0.250000 1.750000 0.625000
v 0.250000 -0.750000 0.625000
v -0.250000 1.125000 0.625000
v 0.250000 1.125000 0.625000
v 0.250000 -0.750000 -0.625000
v -0.250000 -0.750000 -0.625000
v 0.250000 1.125000 -0.625000
v -0.250000 1.125000 -0.625000
vn -0.0000 1.0000 -0.0000
vn -0.0000 -0.0000 1.0000
vn -0.0000 -1.0000 -0.0000
vn -0.0000 -0.0000 -1.0000
vn 1.0000 -0.0000 -0.0000
vn -1.0000 -0.0000 -0.0000
vt 0.625000 0.687500
vt 0.875000 0.687500
vt 0.875000 0.750000
vt 0.625000 0.750000
vt 0.375000 0.750000
vt 0.625000 1.000000
vt 0.375000 1.000000
vt 0.125000 0.687500
vt 0.375000 0.687500
vt 0.125000 0.750000
vt 0.375000 0.250000
vt 0.625000 0.250000
vt 0.625000 0.500000
vt 0.375000 0.500000
vt 0.875000 0.500000
vt 0.562500 0.687500
vt 0.562500 0.562500
vt 0.375000 0.562500
vt 0.125000 0.500000
vt 0.125000 0.562500
vt 0.625000 0.000000
vt 0.625000 0.062500
vt 0.375000 0.187500
vt 0.562500 0.187500
vt 0.562500 0.062500
vt 0.375000 0.062500
vt 0.375000 0.000000
s 0
usemtl Material
f 10/1/1 11/2/1 7/3/1 3/4/1
f 4/5/2 3/4/2 7/6/2 8/7/2
f 9/8/3 12/9/3 4/5/3 8/10/3
f 6/11/4 5/12/4 1/13/4 2/14/4
f 1/13/1 5/15/1 11/2/1 10/1/1
f 4/5/5 12/9/5 14/16/5 17/17/5 15/18/5 2/14/5 1/13/5 10/1/5 3/4/5
f 6/19/3 2/14/3 15/18/3 16/20/3
f 7/21/6 11/22/6 5/12/6 6/11/6 16/23/6 18/24/6 13/25/6 9/26/6 8/27/6
f 14/16/4 12/9/4 9/8/4 13/25/4
f 18/24/2 16/23/2 15/18/2 17/17/2
f 13/25/3 18/24/3 17/17/3 14/16/3
