# Blender 4.5.1 LTS
# www.blender.org
mtllib WallCorner.mtl
o Cube
v 0.250000 1.750000 -0.250000
v 0.250000 -0.750000 -0.250000
v 0.250000 1.750000 0.250000
v 0.250000 -0.750000 0.250000
v -0.250000 1.750000 -0.250000
v -0.250000 -0.750000 -0.250000
v -0.250000 1.750000 0.250000
v -0.250000 -0.750000 0.250000
v -0.499982 1.750000 -0.250000
v -0.499982 -0.750000 -0.250000
v -0.499982 1.750000 0.250000
v -0.499982 -0.750000 0.250000
v 0.250000 1.750000 0.499991
v 0.250000 -0.750000 0.499991
v -0.250000 1.750000 0.499991
v -0.250000 -0.750000 0.499991
vn -0.0000 1.0000 -0.0000
vn -1.0000 -0.0000 -0.0000
vn -0.0000 -1.0000 -0.0000
vn 1.0000 -0.0000 -0.0000
vn -0.0000 -0.0000 -1.0000
vn -0.0000 -0.0000 1.0000
vt 0.625000 0.500000
vt 0.875000 0.500000
vt 0.875000 0.750000
vt 0.625000 0.750000
vt 0.625000 1.000000
vt 0.375000 1.000000
vt 0.125000 0.500000
vt 0.125000 0.750000
vt 0.375000 0.500000
vt 0.375000 0.750000
vt 0.375000 0.250000
vt 0.625000 0.250000
vt 0.375000 0.000000
vt 0.625000 0.000000
s 0
usemtl Material
f 1/1/1 5/2/1 7/3/1 3/4/1
f 7/5/2 8/6/2 16/6/2 15/5/2
f 6/7/3 8/8/3 12/8/3 10/7/3
f 6/7/3 2/9/3 4/10/3 8/8/3
f 2/9/4 1/1/4 3/4/4 4/10/4
f 6/11/5 5/12/5 1/1/5 2/9/5
f 12/13/2 11/14/2 9/12/2 10/11/2
f 7/3/1 5/2/1 9/2/1 11/3/1
f 5/12/5 6/11/5 10/11/5 9/12/5
f 8/6/6 7/5/6 11/5/6 12/6/6
f 14/10/6 13/4/6 15/5/6 16/6/6
f 8/8/3 4/10/3 14/10/3 16/8/3
f 3/4/1 7/3/1 15/3/1 13/4/1
f 4/10/4 3/4/4 13/4/4 14/10/4
